
<svg width="30" height="26" viewBox="0 0 30 26" fill="none" xmlns="http://www.w3.org/2000/svg">
    <g clip-path="url(#clip0_17_381)">
        <path d="M29 12C28.7916 11.9987 28.5888 11.9322 28.42 11.81L15 2.23002L1.58 11.81C1.3647 11.9375 1.10942 11.9797 0.864555 11.9282C0.61969 11.8767 0.403033 11.7352 0.257356 11.5318C0.111678 11.3283 0.0475666 11.0777 0.0776771 10.8293C0.107788 10.5809 0.229932 10.3528 0.419998 10.19L14.42 0.190022C14.5894 0.0694381 14.7921 0.00463867 15 0.00463867C15.2079 0.00463867 15.4106 0.0694381 15.58 0.190022L29.58 10.19C29.7507 10.3136 29.878 10.488 29.9438 10.6883C30.0095 10.8886 30.0102 11.1045 29.9459 11.3052C29.8816 11.5059 29.7555 11.6812 29.5856 11.806C29.4157 11.9308 29.2108 11.9987 29 12Z" fill="white"/>
        <path d="M4 6C3.73478 6 3.48043 5.89464 3.29289 5.70711C3.10536 5.51957 3 5.26522 3 5V1C3 0.734784 3.10536 0.48043 3.29289 0.292893C3.48043 0.105357 3.73478 0 4 0H8C8.26522 0 8.51957 0.105357 8.70711 0.292893C8.89464 0.48043 9 0.734784 9 1C9 1.26522 8.89464 1.51957 8.70711 1.70711C8.51957 1.89464 8.26522 2 8 2H5V5C5 5.26522 4.89464 5.51957 4.70711 5.70711C4.51957 5.89464 4.26522 6 4 6Z" fill="white"/>
        <path d="M24 26H19C18.7348 26 18.4804 25.8946 18.2929 25.7071C18.1054 25.5196 18 25.2652 18 25V18H12V25C12 25.2652 11.8946 25.5196 11.7071 25.7071C11.5196 25.8946 11.2652 26 11 26H6C5.20435 26 4.44129 25.6839 3.87868 25.1213C3.31607 24.5587 3 23.7956 3 23V13C3 12.7348 3.10536 12.4804 3.29289 12.2929C3.48043 12.1054 3.73478 12 4 12C4.26522 12 4.51957 12.1054 4.70711 12.2929C4.89464 12.4804 5 12.7348 5 13V23C5 23.2652 5.10536 23.5196 5.29289 23.7071C5.48043 23.8946 5.73478 24 6 24H10V17C10 16.7348 10.1054 16.4804 10.2929 16.2929C10.4804 16.1054 10.7348 16 11 16H19C19.2652 16 19.5196 16.1054 19.7071 16.2929C19.8946 16.4804 20 16.7348 20 17V24H24C24.2652 24 24.5196 23.8946 24.7071 23.7071C24.8946 23.5196 25 23.2652 25 23V13C25 12.7348 25.1054 12.4804 25.2929 12.2929C25.4804 12.1054 25.7348 12 26 12C26.2652 12 26.5196 12.1054 26.7071 12.2929C26.8946 12.4804 27 12.7348 27 13V23C27 23.7956 26.6839 24.5587 26.1213 25.1213C25.5587 25.6839 24.7956 26 24 26Z" fill="white"/>
    </g>
    <defs>
        <clipPath id="clip0_17_381">
            <rect width="30" height="26" fill="white"/>
        </clipPath>
    </defs>
</svg>
