<svg width="35" height="21" viewBox="0 0 35 21" fill="none" xmlns="http://www.w3.org/2000/svg">
    <path d="M32.9614 7.29934H32.1639V4.99078C32.1639 3.82807 31.2176 2.88172 30.0549 2.88172H28.6351V2.10906C28.6351 0.946348 27.6888 0 26.526 0H24.9604C23.7977 0 22.8513 0.946348 22.8513 2.10906V7.2909H12.1482V2.10906C12.1482 0.946348 11.2018 0 10.0391 0H8.47346C7.31075 0 6.3644 0.946348 6.3644 2.10906V3.54521H4.94513C3.78242 3.54521 2.83607 4.49156 2.83607 5.65427V7.58121H2.0381C0.914588 7.58071 0 8.52706 0 9.68977V11.2391C0 12.4018 0.914588 13.3481 2.0381 13.3481H2.83557V15.6567C2.83557 16.8194 3.78192 17.7657 4.94463 17.7657H6.36391V18.5384C6.36391 19.7011 7.31026 20.6475 8.47297 20.6475H10.0386C11.2013 20.6475 12.1477 19.7011 12.1477 18.5384V13.0747H22.8508V18.5384C22.8508 19.7011 23.7972 20.6475 24.9599 20.6475H26.5255C27.6883 20.6475 28.6346 19.7011 28.6346 18.5384V17.1023H30.0544C31.2171 17.1023 32.1634 16.1559 32.1634 14.9932V13.0668H32.9609C34.0849 13.0668 34.999 12.1204 34.999 10.9577V9.4084C35 8.24568 34.0854 7.29934 32.9614 7.29934ZM2.0381 12.1075C1.59842 12.1075 1.24062 11.7179 1.24062 11.2391V9.68977C1.24062 9.21089 1.59842 8.82134 2.0381 8.82134H2.83557V12.1075H2.0381ZM4.94513 16.5251C4.46625 16.5251 4.07669 16.1356 4.07669 15.6567V5.65377C4.07669 5.17489 4.46625 4.78534 4.94513 4.78534H6.3644V16.5246H4.94513V16.5251ZM10.9076 18.5384C10.9076 19.0173 10.518 19.4068 10.0391 19.4068H8.47346C7.99458 19.4068 7.60503 19.0173 7.60503 18.5384V2.10906C7.60503 1.63018 7.99458 1.24062 8.47346 1.24062H10.0391C10.518 1.24062 10.9076 1.63018 10.9076 2.10906V18.5384ZM12.1482 11.8341V8.53153H22.8513V11.8341H12.1482ZM27.3945 18.5384C27.3945 19.0173 27.0049 19.4068 26.526 19.4068H24.9604C24.4815 19.4068 24.0919 19.0173 24.0919 18.5384V2.10906C24.0919 1.63018 24.4815 1.24062 24.9604 1.24062H26.526C27.0049 1.24062 27.3945 1.63018 27.3945 2.10906V18.5384ZM30.9233 14.9932C30.9233 15.4721 30.5338 15.8616 30.0549 15.8616H28.6351V4.12235H30.0549C30.5338 4.12235 30.9233 4.5119 30.9233 4.99078V14.9932ZM33.7594 10.9577C33.7594 11.4366 33.4016 11.8261 32.9619 11.8261H32.1644V8.53996H32.9619C33.4016 8.53996 33.7594 8.92952 33.7594 9.4084V10.9577Z" fill="white"/>
</svg>
